The Last Airbender *2010*[BluRay][1080p][ENG, POL]

General information:
Country: USA
Release: 1 July 2010
Genre: Action, Adventure, Family, Fantasy 
Director: M. Night Shyamalan
Screenplay: Michael Dante DiMartino
Original Music: James Newton Howard 
Cinematography by: Andrew Lesnie 
Duration: 1h 43mn
Language: English, Polish
Subtitles: English, Polish
Rating: 5.8/10 - 3993 votes 

Cast:
Noah Ringer  ...  Aang  
Dev Patel  ...  Prince Zuko  
Nicola Peltz  ...  Katara  
Jackson Rathbone  ...  Sokka  
Shaun Toub  ...  Uncle Iroh  
Aasif Mandvi  ...  Commander Zhao  
Cliff Curtis  ...  Fire Lord Ozai  
Seychelle Gabriel  ...  Princess Yue  
Katharine Houghton  ...  Katara's Grandma  
Francis Guinan  ...  Master Pakku  
Damon Gupton  ...  Monk Gyatso  
Summer Bishil  ...  Azula  
Randall Duk Kim  ...  Old Man in Temple  
John D'Alonzo  ...  Zhao's Assistant  
Keong Sim  ...  Earthbending Father  

Plot:
The story follows the adventures of Aang, a young successor to a long line of Avatars, who must put his childhood ways aside and stop the Fire Nation from enslaving the Water, Earth and Air nations. 

Specifications:
General
Format                           : Matroska
Overall bit rate                 : 5 653 Kbps

Video
Format                           : AVC
Format/Info                      : Advanced Video Codec
Format profile                   : High@L4.0
Format settings, CABAC           : Yes
Format settings, ReFrames        : 3 frames
Muxing mode                      : Container profile=Unknown@4.0
Codec ID                         : V_MPEG4/ISO/AVC
Bit rate                         : 4 565 Kbps
Width                            : 1 920 pixels
Height                           : 1 080 pixels
Display aspect ratio             : 16:9
Frame rate                       : 23.976 fps

Audio 1
Format                           : AC-3
Format/Info                      : Audio Coding 3
Mode extension                   : CM (complete main)
Codec ID                         : A_AC3
Bit rate mode                    : Constant
Bit rate                         : 640 Kbps
Channel(s)                       : 6 channels
Channel positions                : Front: L C R, Side: L R, LFE
Sampling rate                    : 48.0 KHz
Stream size                      : 473 MiB (11%)
Title                            : English

Audio 2
Format                           : AC-3
Format/Info                      : Audio Coding 3
Mode extension                   : CM (complete main)
Codec ID                         : A_AC3
Bit rate mode                    : Constant
Bit rate                         : 448 Kbps
Channel(s)                       : 6 channels
Channel positions                : Front: L C R, Side: L R, LFE
Sampling rate                    : 48.0 KHz
Stream size                      : 331 MiB (8%)
Title                            : Polish
Language                         : Polish

Text 1
Format                           : UTF-8
Codec ID                         : S_TEXT/UTF8
Codec ID/Info                    : UTF-8 Plain Text
Title                            : English

Text 2
Format                           : UTF-8
Codec ID                         : S_TEXT/UTF8
Codec ID/Info                    : UTF-8 Plain Text
Title                            : Polish
Language                         : Polish
